<?xml version="1.0" encoding="UTF-8"?>
<svg id="_图层_3" data-name="图层 3" xmlns="http://www.w3.org/2000/svg" xmlns:xlink="http://www.w3.org/1999/xlink" viewBox="0 0 64 64">
  <defs>
    <clipPath id="clippath">
      <rect x="13.26" y="10.86" width="38.78" height="38.83" style="fill: none; stroke-width: 0px;"/>
    </clipPath>
  </defs>
  <g style="clip-path: url(#clippath);">
    <path d="m34.98,11.25l.44.18,13.61,6.44c1.89.98,3,2.64,3.02,4.53v.38s-.01,14.84-.01,14.84c.13,1.89-.93,3.63-2.77,4.72l-.38.21-13.47,6.44c-.95.43-1.78.64-2.7.64-.69,0-1.5-.17-2.26-.46l-.45-.19-13.61-6.57c-1.79-.99-2.97-2.66-3.12-4.5l-.02-.4v-14.74c0-1.97,1.03-3.67,2.79-4.61l13.96-6.74c1.57-.7,3.35-.77,4.97-.18h0Zm-18.4,12.38v13.92c-.1.74.33,1.47,1.12,1.97l.27.16,13,6.4v-15.48l-6.01-2.89v5.47c0,.44-.29.75-.72.83l-.19.02c-.07,0-.14-.02-.2-.05l-.1-.07-.08-.02-.95-.49c-.5-.22-.86-.67-.94-1.21l-.02-.23v-5.81s-5.19-2.51-5.19-2.51Zm32.25,0l-14.53,6.85v15.48l13.14-6.29c.79-.4,1.27-1.07,1.37-1.85l.02-.3v-13.9Zm-16.12-9.79l-.29.03c-.2.03-.39.09-.57.17l-.27.15-13.55,6.4-.09.07-.16.1,14.84,7.14,15.03-7.26-.13-.08-.09-.07-13.57-6.43-.47-.13-.11-.03c-.13-.03-.26-.05-.39-.06h-.17Zm0,0" style="fill: #3e5067; stroke-width: 0px;"/>
  </g>
  <g>
    <path d="m49.72,36.66l-.79.19c-.56.14-.98.14-1.4.14-.56,0-.84.42-.84.98s.42.84.84.84.84,0,1.4-.14l.55-.08c.62-.06.07.03.67-.1l.59-.1c2.24-.7,4.62-2.24,5.6-4.2.84-1.54.7-3.22-.28-4.9-.56-.98-1.54-1.68-2.38-2.38-.42-.28-.98-.28-1.26.14-.28.42-.28.98.14,1.26.84.56,1.54,1.26,1.96,1.96.7.98.7,1.96.28,2.94-.7,1.26-2.38,2.38-4.06,3.08" style="fill: #550034; stroke-width: 0px;"/>
    <path d="m12.97,39.94c-2.42-1.12-2.32-.77-3.73-2.54-.13-.17-1.13-2.03.37-3.49.28-.28.28-.98,0-1.26-.28-.28-.98-.28-1.26,0-1.26,1.26-1.54,3.5-.7,5.32,1.4,2.66,4.34,3.5,6.72,4.34l.28.14c.56.14,1.12.28,1.54.42h.28c.42,0,.7-.28.84-.7.14-.42-.14-.98-.56-1.12-.56-.14-.98-.28-1.54-.42" style="fill: #550034; stroke-width: 0px;"/>
    <path d="m6.94,45.95c2.24,1.82,5.04,3.08,8.68,3.92h.28c.42,0,.84-.28.84-.7.14-.42-.14-.98-.7-1.12-3.36-.84-6.02-1.96-7.98-3.64-3.22-2.52-4.48-7-3.08-10.5.7-1.82,2.24-3.36,4.48-4.48.42-.28.56-.7.42-1.26-.28-.42-.7-.56-1.26-.42-2.52,1.26-4.34,3.08-5.32,5.32-1.68,4.48-.28,9.8,3.64,12.88h0Zm45.77-21.28c4.62,1.96,6.86,4.48,6.86,7.7s-2.1,6.58-5.18,8.26c-.42.28-.56.84-.42,1.26.14.28.42.42.84.42.14,0,.28,0,.42-.14,3.64-1.96,6.16-5.88,6.16-9.94,0-2.38-.98-4.48-2.94-6.3-1.26-1.12-2.94-2.1-5.04-3.08-.42-.14-.98,0-1.12.42-.28.7,0,1.26.42,1.4h0Z" style="fill: #550034; stroke-width: 0px;"/>
  </g>
  <path d="m26.78,44.05-1.82,3.64l1.82-1.4m-7.42-7.7l-1.26-.98c-.42-.28-.98-.42-1.54-.14-.56.28-.84.7-.84,1.26v13.02c0,.56.28,1.12.84,1.26.28.14.42.14.7.14s.56-.14.84-.28l4.9-3.64c.31-.25.77-.62,1.34-1.05,3.29-2.5,3.17-2.49,3.15-3.18-.03-.84-1.72-1.69-8.13-6.41Zm-1.68,12.32v-11.62l7.7,5.88-3.08,2.24-4.62,3.5Z" style="fill: #550034; stroke-width: 0px;"/>
</svg>